<svg xmlns="http://www.w3.org/2000/svg" viewBox="0 0 760 420" font-family="ui-sans-serif,system-ui,sans-serif">
<rect width="760" height="420" fill="#ffffff"/>
<text x="64" y="24" font-size="15" font-weight="700" fill="#0f172a">Cumulative recovered $ per invoice, by arm</text>
<text x="64" y="42" font-size="11" fill="#475569">VERDICT: under these assumptions the AX10M engine beats the baseline by 13.29 pp (recovery-rate), with a positive holdout-verified lower bound — it would bill $40,139. — CAVEAT: this 13.81 pp win is over the DEFAULT-reach baseline (what merchants run); against a maximally-persistent baseline it is ~parity on recovery rate (1.95 pp) — the durable edge is the dead-credential capability + cost/compliance, not raw rate vs an all-out retrier.</text>
<line x1="64" y1="372.0" x2="736" y2="372.0" stroke="#e2e8f0"/><text x="56" y="375.0" font-size="10" fill="#94a3b8" text-anchor="end">$0.00</text>
<line x1="64" y1="293.0" x2="736" y2="293.0" stroke="#e2e8f0"/><text x="56" y="296.0" font-size="10" fill="#94a3b8" text-anchor="end">$9.49</text>
<line x1="64" y1="214.0" x2="736" y2="214.0" stroke="#e2e8f0"/><text x="56" y="217.0" font-size="10" fill="#94a3b8" text-anchor="end">$18.98</text>
<line x1="64" y1="135.0" x2="736" y2="135.0" stroke="#e2e8f0"/><text x="56" y="138.0" font-size="10" fill="#94a3b8" text-anchor="end">$28.47</text>
<line x1="64" y1="56.0" x2="736" y2="56.0" stroke="#e2e8f0"/><text x="56" y="59.0" font-size="10" fill="#94a3b8" text-anchor="end">$37.96</text>
<text x="380" y="408" font-size="11" fill="#64748b" text-anchor="middle">days since decline</text>
<line x1="64" y1="157.6" x2="736" y2="157.6" stroke="#cbd5e1" stroke-dasharray="4 3"/>
<rect x="616.0" y="101.6" width="120" height="56.0" fill="#22c55e" opacity="0.14"/>
<path d="M64.0,372.0 L80.8,315.1 L97.6,315.1 L114.4,315.1 L131.2,279.4 L148.0,279.4 L164.8,279.4 L181.6,279.4 L198.4,279.4 L215.2,279.4 L232.0,223.1 L248.8,223.1 L265.6,223.1 L282.4,223.1 L299.2,223.1 L316.0,223.1 L332.8,223.1 L349.6,223.1 L366.4,157.6 L383.2,157.6 L400.0,157.6 L416.8,157.6 L433.6,157.6 L450.4,157.6 L467.2,157.6 L484.0,157.6 L500.8,157.6 L517.6,157.6 L534.4,157.6 L551.2,157.6 L568.0,157.6 L584.8,157.6 L601.6,157.6 L618.4,157.6 L635.2,157.6 L652.0,157.6 L668.8,157.6 L685.6,157.6 L702.4,157.6 L719.2,157.6 L736.0,157.6" fill="none" stroke="#64748b" stroke-width="2"/>
<path d="M64.0,372.0 L80.8,341.9 L97.6,291.2 L114.4,290.5 L131.2,273.0 L148.0,271.7 L164.8,271.7 L181.6,263.6 L198.4,263.6 L215.2,263.6 L232.0,260.7 L248.8,260.7 L265.6,246.1 L282.4,246.1 L299.2,189.9 L316.0,174.1 L332.8,174.1 L349.6,174.1 L366.4,174.1 L383.2,174.1 L400.0,174.1 L416.8,155.9 L433.6,155.9 L450.4,155.9 L467.2,155.9 L484.0,155.9 L500.8,155.9 L517.6,135.5 L534.4,98.2 L551.2,98.2 L568.0,98.2 L584.8,84.7 L601.6,84.7 L618.4,84.7 L635.2,84.7 L652.0,84.7 L668.8,84.7 L685.6,84.7 L702.4,84.7 L719.2,84.7 L736.0,84.7" fill="none" stroke="#2563eb" stroke-width="2.5"/>
<circle cx="736.0" cy="84.7" r="3.5" fill="#2563eb"/>
<circle cx="736.0" cy="157.6" r="3.5" fill="#64748b"/>
<rect x="64" y="56" width="12" height="3" fill="#64748b"/><text x="82" y="60" font-size="11" fill="#334155">Control — Smart Retries</text>
<rect x="254" y="56" width="12" height="3" fill="#2563eb"/><text x="272" y="60" font-size="11" fill="#334155">Treatment — AX10M engine</text>
<rect x="464" y="52" width="12" height="10" fill="#22c55e" opacity="0.2"/><text x="482" y="60" font-size="11" fill="#334155">holdout-verified lower bound</text>
</svg>